<?xml version="1.0" standalone="no"?>
<!DOCTYPE svg PUBLIC "-//W3C//DTD SVG 20010904//EN"
 "http://www.w3.org/TR/2001/REC-SVG-20010904/DTD/svg10.dtd">
<svg version="1.0" xmlns="http://www.w3.org/2000/svg"
 width="451.000000pt" height="451.000000pt" viewBox="0 0 451.000000 451.000000"
 preserveAspectRatio="xMidYMid meet">
<metadata>
Created by potrace 1.14, written by Peter Selinger 2001-2017
</metadata>
<g transform="translate(0.000000,451.000000) scale(0.100000,-0.100000)"
fill="#000000" stroke="none">
<path d="M1818 4505 c-2 -2 -82 -6 -178 -9 -240 -9 -317 -15 -470 -32 -138
-16 -272 -66 -315 -119 l-30 -37 1 -176 c0 -98 3 -258 6 -356 7 -201 7 -199
90 -227 21 -7 38 -15 37 -18 0 -3 -24 -24 -52 -47 -29 -22 -58 -51 -64 -65
-16 -30 -18 -323 -3 -365 6 -16 22 -38 35 -48 31 -23 31 -32 1 -40 -16 -4 -29
-19 -40 -45 -14 -35 -15 -148 -16 -983 0 -615 3 -953 10 -973 20 -59 22 -65
30 -65 5 0 12 -9 15 -20 3 -11 11 -20 16 -20 5 0 27 -11 49 -25 l40 -25 0
-213 c0 -187 2 -216 18 -247 52 -98 283 -221 497 -266 267 -55 422 -69 775
-69 285 0 395 6 555 30 22 4 54 9 70 11 81 12 249 58 329 90 108 43 195 94
254 148 71 65 72 71 72 291 0 107 4 195 8 195 5 0 29 20 53 44 77 75 81 101
85 455 8 817 6 1617 -5 1643 -6 16 -24 36 -40 46 l-30 18 25 27 c39 42 44 69
44 240 l0 162 -29 36 c-16 19 -48 43 -70 54 -50 22 -52 41 -7 49 19 4 44 14
55 24 20 16 21 30 27 373 l5 356 -27 32 c-63 75 -181 106 -474 126 -52 3 -113
8 -135 10 -22 3 -98 7 -170 11 -71 3 -157 8 -190 10 -72 5 -853 13 -857 9z"/>
</g>
</svg>
