<svg width="82" height="38" viewBox="0 0 82 38" fill="none" xmlns="http://www.w3.org/2000/svg">
<path fill-rule="evenodd" clip-rule="evenodd" d="M56.7877 3.54795C56.7877 6.26116 59.1348 7.47488 62.0016 9.6906C63.101 10.5403 64.0306 11.2456 65.0924 12.0775C65.6295 12.4984 66.0593 12.8439 66.618 13.2903C68.5375 14.8235 66.9145 14.2572 68.2479 14.4006V15.0267L5.4288 15.0265C3.68819 15.0224 2.6901 14.9249 1.6411 15.6844C-1.10085 17.6697 -0.636184 22.5797 4.78712 22.5453L68.0356 22.5401C67.9445 23.6169 67.5677 23.3782 66.8135 24.0514L63.844 26.7691C62.514 28.1041 63.0065 27.3633 62.4282 27.9003L59.4926 30.6265C58.294 31.819 57.2121 32.3066 57.2121 34.4363C57.2121 36.0152 57.969 36.0624 58.061 37.1495C58.6697 37.1993 60.7881 38.9838 62.6001 37.2306L67.8715 32.3966C68.4041 31.9012 68.7027 31.8028 69.2599 31.2575L72.5597 28.2414C73.3344 27.6844 71.8098 28.7197 72.956 28.005L73.3418 27.7583C74.0747 27.1558 73.523 27.231 75.3099 25.937C75.7542 25.6153 75.4066 25.8902 75.657 25.6522C76.9578 24.4158 78.5503 22.7276 79.9204 21.7055C82.3287 19.9092 82.8021 17.3344 80.5086 15.283C80.0508 14.8735 79.5808 14.548 79.0971 14.1667L74.8584 10.8216C74.3757 10.4339 73.9144 10.1506 73.4072 9.74427C72.8838 9.32512 72.5263 9.04053 72.0012 8.6225L63.4838 1.97183C62.8025 1.47186 61.565 0 60.1833 0C58.4367 0 56.7877 1.79812 56.7877 3.54795Z" fill="white"/>
</svg>
